Coordinates
version=1
nRows=24
nColumns=22
inDegrees=yes

Units are S.I. units (second, meters, Newtons, ...)
If the header above contains a line with 'inDegrees', this indicates whether rotational values are in degrees (yes) or radians (no).

endheader
time	pelvis_tilt	pelvis_list	pelvis_rotation	pelvis_tx	pelvis_ty	pelvis_tz	hip_flexion_r	hip_adduction_r	hip_rotation_r	knee_angle_r	ankle_angle_r	subtalar_angle_r	hip_flexion_l	hip_adduction_l	hip_rotation_l	knee_angle_l	ankle_angle_l	subtalar_angle_l	lumbar_extension	lumbar_bending	lumbar_rotation
      0.01000000	      1.36470273	     -0.70023516	      1.04426800	     -1.72192424	      1.08177357	     -0.21836338	     -1.83115937	     -0.06741793	     -3.66174405	    -11.01896512	     10.85827481	     -1.77817218	     -2.22667071	     -0.99936651	      0.05374818	    -11.42547663	     12.62326235	     -0.36736960	     -4.92541906	     -1.74103504	     -5.54341697
      0.02000000	      1.37414359	     -0.70138403	      1.03403479	     -1.72203495	      1.08177578	     -0.21832901	     -1.81974540	     -0.06638744	     -3.65557266	    -11.04813250	     10.86099744	     -1.77956764	     -2.22736018	     -1.00099377	      0.05308431	    -11.43379900	     12.62421304	     -0.36504825	     -4.93352101	     -1.74334661	     -5.55551635
      0.03000000	      1.37633358	     -0.69061024	      1.01927591	     -1.72215810	      1.08175853	     -0.21829529	     -1.78673136	     -0.08040610	     -3.65818588	    -11.10316835	     10.89791516	     -1.77994560	     -2.21448799	     -0.98963666	      0.03337490	    -11.45258302	     12.63046790	     -0.36184494	     -4.93021434	     -1.76069074	     -5.55402816
      0.04000000	      1.38511960	     -0.68802544	      1.01149570	     -1.72228357	      1.08175524	     -0.21825221	     -1.76698892	     -0.08237386	     -3.64293068	    -11.14581081	     10.90194249	     -1.77890983	     -2.21312690	     -0.98813360	      0.03566024	    -11.46104403	     12.63095356	     -0.36189473	     -4.93426675	     -1.76981246	     -5.57192615
      0.05000000	      1.39598598	     -0.68200019	      1.00625486	     -1.72239774	      1.08174856	     -0.21821947	     -1.74238481	     -0.08900078	     -3.63075073	    -11.20473278	     10.92263218	     -1.77676286	     -2.21199942	     -0.98286438	      0.03546133	    -11.47454859	     12.63434381	     -0.36338785	     -4.93610404	     -1.78208414	     -5.58386438
      0.06000000	      1.39281903	     -0.65814045	      0.99838653	     -1.72247865	      1.08170835	     -0.21820226	     -1.69614433	     -0.11829927	     -3.63479277	    -11.28100559	     10.99815032	     -1.76334450	     -2.19653997	     -0.95700294	      0.02499434	    -11.49151786	     12.64443304	     -0.36970650	     -4.91372460	     -1.81339346	     -5.57775835
      0.07000000	      1.40820014	     -0.65537268	      1.00870974	     -1.72253671	      1.08170739	     -0.21819100	     -1.68195356	     -0.11965945	     -3.61302278	    -11.33759723	     11.00462708	     -1.75924797	     -2.20419393	     -0.95644484	      0.03177164	    -11.49984413	     12.64597786	     -0.37097850	     -4.91049268	     -1.81995359	     -5.59660124
      0.08000000	      1.42509971	     -0.63752767	      1.01774207	     -1.72255944	      1.08169005	     -0.21820124	     -1.66041369	     -0.14111931	     -3.61331718	    -11.41732413	     11.07532823	     -1.73780419	     -2.21481707	     -0.93738122	      0.04479824	    -11.51168080	     12.65909410	     -0.37731036	     -4.90246926	     -1.83980240	     -5.60494732
      0.09000000	      1.44870771	     -0.62356443	      1.03573250	     -1.72255765	      1.08168604	     -0.21821281	     -1.65114237	     -0.15624076	     -3.60641949	    -11.49122526	     11.12078500	     -1.71337153	     -2.23420401	     -0.92402573	      0.06235848	    -11.52061412	     12.66599587	     -0.38220398	     -4.89956901	     -1.85490079	     -5.62352571
      0.10000000	      1.47681387	     -0.60985084	      1.05682541	     -1.72253515	      1.08168720	     -0.21823052	     -1.64891450	     -0.17127205	     -3.60405085	    -11.56356717	     11.16848902	     -1.68716793	     -2.25960030	     -0.91122996	      0.08145369	    -11.52894333	     12.67499270	     -0.38691433	     -4.89859967	     -1.86825096	     -5.64306280
      0.11000000	      1.50489234	     -0.59283197	      1.08027942	     -1.72250408	      1.08168764	     -0.21825846	     -1.64852626	     -0.19103015	     -3.61031024	    -11.63403370	     11.21827972	     -1.65266548	     -2.28489513	     -0.89470998	      0.10218971	    -11.53742460	     12.68235879	     -0.39200905	     -4.89666847	     -1.88268712	     -5.66453555
      0.12000000	      1.52933998	     -0.57688511	      1.10239691	     -1.72247320	      1.08168312	     -0.21827755	     -1.64472491	     -0.20949254	     -3.62221195	    -11.70328388	     11.27050882	     -1.61716729	     -2.30410481	     -0.87943819	      0.12430833	    -11.55042575	     12.69027379	     -0.39681754	     -4.89050152	     -1.89614084	     -5.68374956
      0.13000000	      1.54816737	     -0.55925124	      1.12535134	     -1.72244189	      1.08167304	     -0.21830508	     -1.63662996	     -0.23112419	     -3.64337945	    -11.76905537	     11.32575669	     -1.57437790	     -2.31527208	     -0.86165621	      0.14834207	    -11.56706812	     12.69709523	     -0.40152271	     -4.87716808	     -1.90923497	     -5.70350045
      0.14000000	      1.56036728	     -0.54162261	      1.15053845	     -1.72240904	      1.08165633	     -0.21833615	     -1.62407325	     -0.25382993	     -3.67314887	    -11.82997381	     11.38417526	     -1.52055380	     -2.31759665	     -0.84396057	      0.17577493	    -11.58656382	     12.70312972	     -0.40617835	     -4.85539851	     -1.92151828	     -5.72323364
      0.15000000	      1.57630441	     -0.53316983	      1.16835890	     -1.72239127	      1.08165064	     -0.21835252	     -1.61614937	     -0.26583535	     -3.68195187	    -11.88648238	     11.42073582	     -1.49110913	     -2.32109067	     -0.83624738	      0.19953068	    -11.61093386	     12.70584390	     -0.40791753	     -4.84044354	     -1.92159687	     -5.73558815
      0.16000000	      1.58174627	     -0.51729978	      1.19743951	     -1.72231768	      1.08162624	     -0.21837923	     -1.61260696	     -0.28702798	     -3.73733475	    -11.91989125	     11.50292382	     -1.43711524	     -2.31723744	     -0.82141004	      0.22669305	    -11.63139303	     12.71743176	     -0.41102560	     -4.80294660	     -1.93435643	     -5.73589699
      0.17000000	      1.57230389	     -0.49164196	      1.23545060	     -1.72227181	      1.08158888	     -0.21843855	     -1.58439330	     -0.32249040	     -3.80506869	    -11.96954490	     11.56304070	     -1.30318188	     -2.29350410	     -0.79344188	      0.27863063	    -11.65500836	     12.71754342	     -0.41403449	     -4.75176460	     -1.95154612	     -5.77533109
      0.18000000	      1.58378650	     -0.48994109	      1.25633037	     -1.72221718	      1.08158167	     -0.21844265	     -1.58853648	     -0.32589607	     -3.82512486	    -11.99567718	     11.60635104	     -1.26691740	     -2.29448817	     -0.79410802	      0.30059157	    -11.67831338	     12.71924523	     -0.41439374	     -4.72421025	     -1.94712361	     -5.76171048
      0.19000000	      1.58497065	     -0.46817050	      1.29226932	     -1.72214971	      1.08155438	     -0.21849011	     -1.57773330	     -0.35546080	     -3.89262009	    -12.03475076	     11.67349135	     -1.15255847	     -2.28755877	     -0.77118939	      0.34402829	    -11.69489210	     12.72886274	     -0.41262189	     -4.68238691	     -1.95950428	     -5.79483684
      0.20000000	      1.59111344	     -0.46440494	      1.31007586	     -1.72203627	      1.08154349	     -0.21849109	     -1.59443354	     -0.35992606	     -3.91767131	    -12.02952956	     11.69797616	     -1.13107278	     -2.29502269	     -0.76971552	      0.35105268	    -11.70047531	     12.72852871	     -0.41128028	     -4.63840244	     -1.95610397	     -5.77801963
      0.21000000	      1.59733725	     -0.44510330	      1.35161495	     -1.72195651	      1.08151944	     -0.21854173	     -1.59312406	     -0.38528020	     -3.98989764	    -12.06318671	     11.76786049	     -1.03495688	     -2.29845632	     -0.74980414	      0.40423857	    -11.70850952	     12.73424166	     -0.40235091	     -4.60236258	     -1.96570232	     -5.80951878
      0.22000000	      1.60213901	     -0.43898488	      1.36865283	     -1.72183287	      1.08150212	     -0.21855051	     -1.61278587	     -0.39190168	     -4.01367273	    -12.05061049	     11.78084850	     -1.01940525	     -2.30710917	     -0.74518567	      0.40755540	    -11.71128360	     12.73435461	     -0.40041043	     -4.55675789	     -1.96169387	     -5.79479071
      0.23000000	      1.60773419	     -0.41973694	      1.41449402	     -1.72173168	      1.08147796	     -0.21861450	     -1.62229168	     -0.41510699	     -4.08319695	    -12.06536628	     11.82667808	     -0.95242842	     -2.31582760	     -0.72502129	      0.46194728	    -11.70936254	     12.73647415	     -0.38856656	     -4.51776841	     -1.96895333	     -5.82390902
      0.24000000	      1.61277914	     -0.41300106	      1.43340575	     -1.72160206	      1.08145795	     -0.21862975	     -1.64306204	     -0.42140022	     -4.10360327	    -12.05310425	     11.83504134	     -0.94443824	     -2.32666021	     -0.72000347	      0.46279827	    -11.70930699	     12.73826192	     -0.38722748	     -4.47267212	     -1.96426762	     -5.81264863
